<svg xmlns="http://www.w3.org/2000/svg" version="1.1" xmlns:xlink="http://www.w3.org/1999/xlink" xmlns:svgjs="http://svgjs.com/svgjs" width="1440" height="560" preserveAspectRatio="none" viewBox="0 0 1440 560"><g mask="url(&quot;#SvgjsMask1017&quot;)" fill="none"><rect width="1440" height="560" x="0" y="0" fill="#0e2a47"></rect><path d="M1004.554,581.187C1054.335,582.157,1095.586,545.617,1119.018,501.685C1141.025,460.425,1140.436,411.143,1116.761,370.817C1093.387,331.004,1050.714,305.902,1004.554,306.72C959.72,307.514,920.974,335.571,899.03,374.675C877.577,412.904,877.62,458.333,897.567,497.369C919.661,540.607,956.007,580.241,1004.554,581.187" fill="rgba(28, 83, 142, 0.4)" class="triangle-float3"></path><path d="M516.35 333.61 a149.94 149.94 0 1 0 299.88 0 a149.94 149.94 0 1 0 -299.88 0z" fill="rgba(28, 83, 142, 0.4)" class="triangle-float2"></path><path d="M1161.628,692.846C1215.601,695.089,1263.127,656.882,1287.105,608.475C1308.717,564.846,1294.432,515.576,1270.421,473.22C1245.978,430.102,1211.192,387.078,1161.628,387.133C1112.127,387.188,1075.862,429.424,1053.256,473.462C1032.815,513.282,1033.178,558.615,1053.002,598.746C1075.742,644.781,1110.327,690.714,1161.628,692.846" fill="rgba(28, 83, 142, 0.4)" class="triangle-float1"></path><path d="M215.739,235.444C267.078,238.689,324.444,233.192,352.361,189.986C382.045,144.046,374.015,82.77,343.881,37.124C316.504,-4.346,265.429,-16.491,215.739,-16.963C164.962,-17.446,108.552,-9.412,83.307,34.647C58.154,78.545,78.222,132.185,106.078,174.42C130.763,211.849,170.992,232.616,215.739,235.444" fill="rgba(28, 83, 142, 0.4)" class="triangle-float1"></path><path d="M1069.67,408.364C1103.13,408.154,1125.473,378.222,1142.41,349.364C1159.639,320.009,1175.442,285.586,1159.328,255.604C1142.613,224.503,1104.935,212.281,1069.67,214.026C1037.405,215.623,1009.64,235.419,994.169,263.777C979.366,290.912,981.025,322.887,995.333,350.286C1010.933,380.161,1035.968,408.575,1069.67,408.364" fill="rgba(28, 83, 142, 0.4)" class="triangle-float2"></path><path d="M511.808,474.929C541.589,475.693,564.996,452.297,579.546,426.301C593.705,401.005,597.966,370.901,584.363,345.302C569.918,318.119,542.588,299.249,511.808,298.827C480.331,298.395,449.782,315.098,435.721,343.263C422.803,369.139,435.362,397.933,449.832,422.974C464.288,447.99,482.924,474.188,511.808,474.929" fill="rgba(28, 83, 142, 0.4)" class="triangle-float1"></path><path d="M68.615,124.138C105.52,123.405,141.228,106.925,159.382,74.786C177.269,43.12,173.26,3.929,153.909,-26.864C135.769,-55.729,102.69,-70.72,68.615,-69.651C36.391,-68.64,9.802,-48.741,-7.887,-21.787C-27.965,8.808,-45.616,46.11,-28.624,78.521C-10.807,112.507,30.25,124.9,68.615,124.138" fill="rgba(28, 83, 142, 0.4)" class="triangle-float1"></path><path d="M726.659,440.105C770.25,439.118,799.838,400.132,819.992,361.467C838.334,326.278,844.662,285.265,825.471,250.532C805.676,214.706,767.582,191.726,726.659,192.553C687.026,193.354,654.483,220.137,634.531,254.391C614.423,288.913,607.953,330.077,625.707,365.866C645.602,405.971,681.901,441.118,726.659,440.105" fill="rgba(28, 83, 142, 0.4)" class="triangle-float3"></path><path d="M359.666,292.701C389.82,292.629,416.421,272.454,429.481,245.275C441.067,221.163,431.124,194.597,418.006,171.283C404.535,147.343,387.125,121.993,359.666,121.198C331.264,120.376,309.16,142.999,295.168,167.729C281.427,192.014,276.476,220.812,289.273,245.607C303.15,272.495,329.408,292.773,359.666,292.701" fill="rgba(28, 83, 142, 0.4)" class="triangle-float3"></path><path d="M-27.15 285.56 a95.22 95.22 0 1 0 190.44 0 a95.22 95.22 0 1 0 -190.44 0z" fill="rgba(28, 83, 142, 0.4)" class="triangle-float1"></path><path d="M-21 327.81 a106.74 106.74 0 1 0 213.48 0 a106.74 106.74 0 1 0 -213.48 0z" fill="rgba(28, 83, 142, 0.4)" class="triangle-float2"></path><path d="M529.49 514.02 a95.35 95.35 0 1 0 190.7 0 a95.35 95.35 0 1 0 -190.7 0z" fill="rgba(28, 83, 142, 0.4)" class="triangle-float3"></path><path d="M907.904,240.442C950.47,240.736,987.319,214.452,1009.421,178.073C1032.521,140.051,1044.329,92.052,1021.121,54.096C998.612,17.284,951.051,12.275,907.904,12.047C864.201,11.816,815.136,15.446,792.594,52.888C769.587,91.103,785.422,138.69,808.784,176.689C830.836,212.557,865.8,240.152,907.904,240.442" fill="rgba(28, 83, 142, 0.4)" class="triangle-float2"></path></g><defs><mask id="SvgjsMask1017"><rect width="1440" height="560" fill="#ffffff"></rect></mask><style>
            @keyframes float1 {
                0%{transform: translate(0, 0)}
                50%{transform: translate(-10px, 0)}
                100%{transform: translate(0, 0)}
            }

            .triangle-float1 {
                animation: float1 5s infinite;
            }

            @keyframes float2 {
                0%{transform: translate(0, 0)}
                50%{transform: translate(-5px, -5px)}
                100%{transform: translate(0, 0)}
            }

            .triangle-float2 {
                animation: float2 4s infinite;
            }

            @keyframes float3 {
                0%{transform: translate(0, 0)}
                50%{transform: translate(0, -10px)}
                100%{transform: translate(0, 0)}
            }

            .triangle-float3 {
                animation: float3 6s infinite;
            }
        </style></defs></svg>